<svg width="60" height="56" viewBox="0 0 60 56" fill="none" xmlns="http://www.w3.org/2000/svg">
<path d="M31.3168 1.83623C31.4396 1.66666 31.5106 1.46907 31.5222 1.26467C31.5338 1.06028 31.4856 0.856805 31.3826 0.67608C31.2796 0.495355 31.1258 0.344207 30.9378 0.238859C30.7497 0.133512 30.5344 0.0779511 30.3151 0.0781254V0.0781254C29.9946 0.0781254 29.6872 0.196927 29.4605 0.4084C29.2339 0.619874 29.1066 0.906687 29.1066 1.20576C29.1066 1.50482 29.2339 1.79165 29.4605 2.00312C29.6872 2.2146 29.9946 2.3334 30.3151 2.3334V2.3334C30.5129 2.33341 30.7077 2.28809 30.8824 2.2014C31.057 2.11471 31.2062 1.98931 31.3168 1.83623V1.83623Z" fill="black"/>
<path d="M31.3168 8.42144C31.4396 8.25186 31.5106 8.05427 31.5222 7.84988C31.5338 7.64549 31.4856 7.44201 31.3826 7.26128C31.2796 7.08056 31.1258 6.92941 30.9378 6.82406C30.7497 6.71872 30.5344 6.66316 30.3151 6.66333V6.66333C29.9946 6.66333 29.6872 6.78213 29.4605 6.99361C29.2339 7.20508 29.1065 7.4919 29.1065 7.79097C29.1065 8.09004 29.2339 8.37685 29.4605 8.58833C29.6872 8.7998 29.9946 8.9186 30.3151 8.9186V8.9186C30.5129 8.91862 30.7077 8.87329 30.8824 8.7866C31.057 8.69991 31.2062 8.57452 31.3168 8.42144V8.42144Z" fill="black"/>
<path d="M31.3168 15.0071C31.4396 14.8376 31.5106 14.64 31.5222 14.4356C31.5338 14.2312 31.4856 14.0277 31.3826 13.847C31.2796 13.6663 31.1258 13.5151 30.9378 13.4098C30.7497 13.3044 30.5344 13.2488 30.3151 13.249V13.249C29.9945 13.249 29.6871 13.3678 29.4604 13.5793C29.2338 13.7908 29.1064 14.0777 29.1064 14.3768C29.1064 14.6758 29.2338 14.9627 29.4604 15.1742C29.6871 15.3857 29.9945 15.5045 30.3151 15.5045V15.5045C30.5129 15.5045 30.7077 15.4591 30.8824 15.3724C31.0571 15.2857 31.2062 15.1603 31.3168 15.0071V15.0071Z" fill="black"/>
<path d="M31.3168 21.5931C31.4396 21.4235 31.5106 21.2259 31.5222 21.0215C31.5338 20.8171 31.4856 20.6137 31.3826 20.4329C31.2796 20.2522 31.1258 20.1011 30.9378 19.9957C30.7497 19.8904 30.5344 19.8348 30.3151 19.835V19.835C29.9945 19.835 29.6872 19.9538 29.4605 20.1652C29.2339 20.3767 29.1065 20.6635 29.1065 20.9626C29.1065 21.2617 29.2339 21.5485 29.4605 21.76C29.6872 21.9714 29.9945 22.0902 30.3151 22.0902C30.5129 22.0903 30.7077 22.0449 30.8824 21.9582C31.057 21.8715 31.2062 21.7461 31.3168 21.5931Z" fill="black"/>
<path d="M31.3168 28.1791C31.4394 28.0094 31.5103 27.8118 31.5218 27.6075C31.5333 27.4031 31.485 27.1997 31.3821 27.019C31.2791 26.8383 31.1255 26.6871 30.9375 26.5817C30.7495 26.4762 30.5344 26.4205 30.3151 26.4204C29.9944 26.4204 29.6869 26.5393 29.4602 26.7508C29.2335 26.9623 29.1061 27.2493 29.1061 27.5484C29.1061 27.8476 29.2335 28.1345 29.4602 28.346C29.6869 28.5576 29.9944 28.6764 30.3151 28.6764V28.6764C30.5129 28.6764 30.7077 28.6311 30.8824 28.5443C31.0571 28.4576 31.2062 28.3322 31.3168 28.1791Z" fill="black"/>
<path d="M24.4653 1.20512C24.4653 0.98222 24.3945 0.764328 24.2618 0.578995C24.1291 0.393662 23.9404 0.24921 23.7197 0.16391C23.499 0.0786108 23.2562 0.056296 23.0219 0.0997812C22.7876 0.143266 22.5724 0.250601 22.4034 0.408214C22.2345 0.565826 22.1195 0.766635 22.0729 0.98525C22.0263 1.20387 22.0502 1.43046 22.1416 1.6364C22.233 1.84233 22.3878 2.01834 22.5865 2.14218C22.7851 2.26601 23.0186 2.33211 23.2575 2.33211C23.5778 2.33186 23.8848 2.21305 24.1113 2.00175C24.3377 1.79045 24.4651 1.50394 24.4653 1.20512V1.20512Z" fill="black"/>
<path d="M24.4653 7.79081C24.4653 7.56791 24.3945 7.35002 24.2618 7.16469C24.1291 6.97935 23.9404 6.83491 23.7197 6.74961C23.499 6.66431 23.2562 6.64199 23.0219 6.68547C22.7876 6.72896 22.5724 6.83629 22.4034 6.9939C22.2345 7.15152 22.1195 7.35234 22.0729 7.57095C22.0263 7.78957 22.0502 8.01617 22.1416 8.2221C22.233 8.42803 22.3878 8.60403 22.5865 8.72787C22.7851 8.8517 23.0186 8.91781 23.2575 8.91781C23.5778 8.91756 23.8848 8.79874 24.1113 8.58744C24.3377 8.37614 24.4651 8.08963 24.4653 7.79081V7.79081Z" fill="black"/>
<path d="M24.4653 14.377C24.4653 14.1541 24.3945 13.9362 24.2618 13.7509C24.1291 13.5655 23.9404 13.4211 23.7197 13.3358C23.499 13.2505 23.2562 13.2282 23.0219 13.2717C22.7876 13.3151 22.5724 13.4225 22.4034 13.5801C22.2345 13.7377 22.1195 13.9385 22.0729 14.1571C22.0263 14.3757 22.0502 14.6023 22.1416 14.8083C22.233 15.0142 22.3878 15.1902 22.5865 15.314C22.7851 15.4379 23.0186 15.504 23.2575 15.504C23.5778 15.5037 23.8848 15.3849 24.1113 15.1736C24.3377 14.9623 24.4651 14.6758 24.4653 14.377V14.377Z" fill="black"/>
<path d="M24.4653 20.9627C24.4653 20.7398 24.3945 20.5219 24.2618 20.3366C24.1291 20.1512 23.9404 20.0068 23.7197 19.9215C23.499 19.8362 23.2562 19.8139 23.0219 19.8573C22.7876 19.9008 22.5724 20.0082 22.4034 20.1658C22.2345 20.3234 22.1195 20.5242 22.0729 20.7428C22.0263 20.9614 22.0502 21.188 22.1416 21.394C22.233 21.5999 22.3878 21.7759 22.5865 21.8997C22.7851 22.0236 23.0186 22.0897 23.2575 22.0897C23.5778 22.0897 23.8851 21.9709 24.1116 21.7596C24.3381 21.5482 24.4653 21.2616 24.4653 20.9627V20.9627Z" fill="black"/>
<path d="M24.4653 27.5486C24.4653 27.3257 24.3945 27.1078 24.2618 26.9225C24.1291 26.7372 23.9404 26.5927 23.7197 26.5074C23.499 26.4221 23.2562 26.3998 23.0219 26.4433C22.7876 26.4868 22.5724 26.5941 22.4034 26.7517C22.2345 26.9093 22.1195 27.1101 22.0729 27.3288C22.0263 27.5474 22.0502 27.774 22.1416 27.9799C22.233 28.1858 22.3878 28.3618 22.5865 28.4857C22.7851 28.6095 23.0186 28.6756 23.2575 28.6756C23.5777 28.6753 23.8848 28.5565 24.1112 28.3452C24.3377 28.1339 24.465 27.8474 24.4653 27.5486V27.5486Z" fill="black"/>
<path d="M24.4653 34.1341C24.4653 33.9112 24.3945 33.6933 24.2618 33.508C24.1291 33.3226 23.9404 33.1782 23.7197 33.0929C23.499 33.0076 23.2562 32.9853 23.0219 33.0287C22.7876 33.0722 22.5724 33.1796 22.4034 33.3372C22.2345 33.4948 22.1195 33.6956 22.0729 33.9142C22.0263 34.1328 22.0502 34.3594 22.1416 34.5654C22.233 34.7713 22.3878 34.9473 22.5865 35.0711C22.7851 35.195 23.0186 35.2611 23.2575 35.2611C23.5778 35.2608 23.8848 35.142 24.1113 34.9307C24.3377 34.7194 24.4651 34.4329 24.4653 34.1341V34.1341Z" fill="black"/>
<path d="M17.4067 1.20487C17.4067 0.981976 17.3359 0.764084 17.2032 0.578751C17.0705 0.393418 16.8818 0.248965 16.6611 0.163666C16.4404 0.0783667 16.1976 0.0560518 15.9633 0.0995371C15.729 0.143022 15.5138 0.250357 15.3448 0.40797C15.1759 0.565582 15.0609 0.766391 15.0143 0.985006C14.9677 1.20362 14.9916 1.43022 15.083 1.63615C15.1744 1.84208 15.3292 2.0181 15.5279 2.14193C15.7265 2.26577 15.96 2.33186 16.1989 2.33186C16.5192 2.33162 16.8262 2.21281 17.0527 2.00151C17.2791 1.79021 17.4065 1.5037 17.4067 1.20487V1.20487Z" fill="black"/>
<path d="M17.4072 7.79081C17.4072 7.56791 17.3364 7.35002 17.2037 7.16469C17.0709 6.97935 16.8823 6.83491 16.6616 6.74961C16.4409 6.66431 16.1981 6.64199 15.9638 6.68547C15.7295 6.72896 15.5142 6.83629 15.3453 6.9939C15.1764 7.15152 15.0614 7.35234 15.0148 7.57095C14.9682 7.78957 14.9921 8.01617 15.0835 8.2221C15.1749 8.42803 15.3297 8.60403 15.5284 8.72787C15.727 8.8517 15.9605 8.91781 16.1994 8.91781C16.5196 8.91756 16.8267 8.79874 17.0532 8.58744C17.2796 8.37614 17.407 8.08963 17.4072 7.79081V7.79081Z" fill="black"/>
<path d="M17.4067 14.377C17.4067 14.1541 17.3359 13.9362 17.2032 13.7509C17.0705 13.5655 16.8818 13.4211 16.6611 13.3358C16.4404 13.2505 16.1976 13.2282 15.9633 13.2717C15.729 13.3151 15.5138 13.4225 15.3448 13.5801C15.1759 13.7377 15.0609 13.9385 15.0143 14.1571C14.9677 14.3757 14.9916 14.6023 15.083 14.8083C15.1744 15.0142 15.3292 15.1902 15.5279 15.314C15.7265 15.4379 15.96 15.504 16.1989 15.504C16.5192 15.5037 16.8262 15.3849 17.0527 15.1736C17.2791 14.9623 17.4065 14.6758 17.4067 14.377V14.377Z" fill="black"/>
<path d="M17.4072 20.9627C17.4072 20.7398 17.3364 20.5219 17.2037 20.3366C17.0709 20.1512 16.8823 20.0068 16.6616 19.9215C16.4409 19.8362 16.1981 19.8139 15.9638 19.8573C15.7295 19.9008 15.5142 20.0082 15.3453 20.1658C15.1764 20.3234 15.0614 20.5242 15.0148 20.7428C14.9682 20.9614 14.9921 21.188 15.0835 21.394C15.1749 21.5999 15.3297 21.7759 15.5284 21.8997C15.727 22.0236 15.9605 22.0897 16.1994 22.0897C16.5197 22.0897 16.8269 21.9709 17.0535 21.7596C17.28 21.5482 17.4072 21.2616 17.4072 20.9627V20.9627Z" fill="black"/>
<path d="M17.4072 27.5486C17.4072 27.3257 17.3364 27.1078 17.2037 26.9225C17.0709 26.7372 16.8823 26.5927 16.6616 26.5074C16.4409 26.4221 16.1981 26.3998 15.9638 26.4433C15.7295 26.4868 15.5142 26.5941 15.3453 26.7517C15.1764 26.9093 15.0614 27.1102 15.0148 27.3288C14.9682 27.5474 14.9921 27.774 15.0835 27.9799C15.1749 28.1858 15.3297 28.3618 15.5284 28.4857C15.727 28.6095 15.9605 28.6756 16.1994 28.6756C16.5196 28.6753 16.8267 28.5565 17.0531 28.3452C17.2796 28.1339 17.4069 27.8474 17.4072 27.5486V27.5486Z" fill="black"/>
<path d="M17.4067 34.1341C17.4067 33.9112 17.3359 33.6933 17.2032 33.5079C17.0705 33.3226 16.8818 33.1782 16.6611 33.0929C16.4404 33.0076 16.1976 32.9853 15.9633 33.0287C15.729 33.0722 15.5138 33.1796 15.3448 33.3372C15.1759 33.4948 15.0609 33.6956 15.0143 33.9142C14.9677 34.1328 14.9916 34.3594 15.083 34.5653C15.1744 34.7713 15.3292 34.9473 15.5279 35.0711C15.7265 35.195 15.96 35.2611 16.1989 35.2611C16.5192 35.2608 16.8262 35.142 17.0527 34.9307C17.2791 34.7194 17.4065 34.4329 17.4067 34.1341V34.1341Z" fill="black"/>
<path d="M17.4072 40.7198C17.4072 40.4969 17.3364 40.279 17.2037 40.0936C17.0709 39.9083 16.8823 39.7639 16.6616 39.6786C16.4409 39.5933 16.1981 39.5709 15.9638 39.6144C15.7295 39.6579 15.5142 39.7652 15.3453 39.9229C15.1764 40.0805 15.0614 40.2813 15.0148 40.4999C14.9682 40.7185 14.9921 40.9451 15.0835 41.151C15.1749 41.357 15.3297 41.533 15.5284 41.6568C15.727 41.7807 15.9605 41.8468 16.1994 41.8468C16.5197 41.8468 16.8269 41.728 17.0535 41.5167C17.28 41.3053 17.4072 41.0187 17.4072 40.7198Z" fill="black"/>
<path d="M10.3486 1.20487C10.3486 0.981976 10.2778 0.764084 10.1451 0.578751C10.0124 0.393418 9.82372 0.248965 9.60302 0.163666C9.38232 0.0783667 9.13946 0.0560518 8.90516 0.0995371C8.67086 0.143022 8.45565 0.250357 8.28673 0.40797C8.11781 0.565582 8.00278 0.766391 7.95618 0.985006C7.90957 1.20362 7.93349 1.43022 8.02491 1.63615C8.11633 1.84208 8.27114 2.0181 8.46976 2.14193C8.66839 2.26577 8.90191 2.33186 9.1408 2.33186C9.29941 2.33186 9.45648 2.30271 9.60302 2.24607C9.74956 2.18943 9.88271 2.10643 9.99487 2.00178C10.107 1.89713 10.196 1.77288 10.2567 1.63615C10.3174 1.49942 10.3486 1.35287 10.3486 1.20487Z" fill="black"/>
<path d="M10.3486 7.79081C10.3486 7.56791 10.2778 7.35002 10.1451 7.16469C10.0124 6.97935 9.82372 6.83491 9.60302 6.74961C9.38232 6.66431 9.13946 6.64199 8.90516 6.68547C8.67087 6.72896 8.45565 6.83629 8.28674 6.9939C8.11782 7.15152 8.00278 7.35234 7.95618 7.57095C7.90958 7.78957 7.9335 8.01617 8.02491 8.2221C8.11633 8.42803 8.27114 8.60403 8.46977 8.72787C8.66839 8.8517 8.90192 8.91781 9.1408 8.91781C9.29942 8.91781 9.45648 8.88865 9.60302 8.83202C9.74956 8.77538 9.88271 8.69236 9.99487 8.58771C10.107 8.48306 10.196 8.35883 10.2567 8.2221C10.3174 8.08536 10.3486 7.93881 10.3486 7.79081Z" fill="black"/>
<path d="M10.3486 14.377C10.3486 14.1541 10.2778 13.9362 10.1451 13.7509C10.0124 13.5655 9.82372 13.4211 9.60302 13.3358C9.38232 13.2505 9.13946 13.2282 8.90516 13.2717C8.67087 13.3151 8.45565 13.4225 8.28674 13.5801C8.11782 13.7377 8.00278 13.9385 7.95618 14.1571C7.90958 14.3757 7.9335 14.6023 8.02491 14.8083C8.11633 15.0142 8.27114 15.1902 8.46977 15.314C8.66839 15.4379 8.90192 15.504 9.1408 15.504C9.29942 15.504 9.45648 15.4748 9.60302 15.4182C9.74956 15.3616 9.88271 15.2785 9.99487 15.1739C10.107 15.0692 10.196 14.945 10.2567 14.8083C10.3174 14.6715 10.3486 14.525 10.3486 14.377Z" fill="black"/>
<path d="M10.3486 20.9629C10.3486 20.74 10.2778 20.5221 10.1451 20.3368C10.0124 20.1515 9.82372 20.007 9.60302 19.9217C9.38232 19.8364 9.13946 19.8141 8.90516 19.8576C8.67087 19.9011 8.45565 20.0084 8.28674 20.166C8.11782 20.3236 8.00278 20.5244 7.95618 20.7431C7.90958 20.9617 7.9335 21.1883 8.02491 21.3942C8.11633 21.6001 8.27114 21.7761 8.46977 21.9C8.66839 22.0238 8.90192 22.0899 9.1408 22.0899C9.29942 22.0899 9.45648 22.0608 9.60302 22.0041C9.74956 21.9475 9.88271 21.8645 9.99487 21.7598C10.107 21.6552 10.196 21.5309 10.2567 21.3942C10.3174 21.2575 10.3486 21.1109 10.3486 20.9629V20.9629Z" fill="black"/>
<path d="M10.3486 27.5486C10.3486 27.3257 10.2778 27.1078 10.1451 26.9225C10.0124 26.7372 9.82372 26.5927 9.60302 26.5074C9.38232 26.4221 9.13946 26.3998 8.90516 26.4433C8.67087 26.4868 8.45565 26.5941 8.28674 26.7517C8.11782 26.9093 8.00278 27.1101 7.95618 27.3288C7.90958 27.5474 7.9335 27.774 8.02491 27.9799C8.11633 28.1858 8.27114 28.3618 8.46977 28.4857C8.66839 28.6095 8.90192 28.6756 9.1408 28.6756C9.29942 28.6756 9.45648 28.6465 9.60302 28.5898C9.74956 28.5332 9.88271 28.4502 9.99487 28.3455C10.107 28.2409 10.196 28.1166 10.2567 27.9799C10.3174 27.8432 10.3486 27.6966 10.3486 27.5486Z" fill="black"/>
<path d="M10.3486 34.1341C10.3486 33.9112 10.2778 33.6933 10.1451 33.5079C10.0124 33.3226 9.82372 33.1782 9.60302 33.0929C9.38232 33.0076 9.13946 32.9853 8.90516 33.0287C8.67087 33.0722 8.45565 33.1796 8.28673 33.3372C8.11782 33.4948 8.00278 33.6956 7.95618 33.9142C7.90957 34.1328 7.9335 34.3594 8.02491 34.5653C8.11633 34.7713 8.27114 34.9473 8.46977 35.0711C8.66839 35.195 8.90191 35.2611 9.1408 35.2611C9.29942 35.2611 9.45648 35.2319 9.60302 35.1753C9.74956 35.1186 9.88271 35.0356 9.99487 34.931C10.107 34.8263 10.196 34.7021 10.2567 34.5653C10.3174 34.4286 10.3486 34.2821 10.3486 34.1341V34.1341Z" fill="black"/>
<path d="M10.3486 40.72C10.3486 40.4971 10.2778 40.2792 10.1451 40.0939C10.0124 39.9086 9.82372 39.7641 9.60302 39.6788C9.38232 39.5935 9.13946 39.5712 8.90516 39.6147C8.67086 39.6582 8.45565 39.7655 8.28673 39.9231C8.11781 40.0807 8.00278 40.2815 7.95618 40.5001C7.90957 40.7188 7.93349 40.9454 8.02491 41.1513C8.11633 41.3572 8.27114 41.5332 8.46976 41.6571C8.66839 41.7809 8.90191 41.847 9.1408 41.847C9.29941 41.847 9.45648 41.8178 9.60302 41.7612C9.74956 41.7046 9.88271 41.6216 9.99487 41.5169C10.107 41.4123 10.196 41.288 10.2567 41.1513C10.3174 41.0146 10.3486 40.868 10.3486 40.72Z" fill="black"/>
<path d="M3.29102 1.20502C3.29121 0.981911 3.22049 0.763758 3.0878 0.57816C2.95511 0.392561 2.76641 0.247852 2.54557 0.162331C2.32473 0.0768089 2.08167 0.054319 1.84712 0.0977055C1.61258 0.141092 1.39709 0.248402 1.22792 0.40607C1.05875 0.563738 0.943494 0.764684 0.896726 0.983479C0.849959 1.20227 0.87378 1.4291 0.965183 1.63526C1.05659 1.84142 1.21146 2.01765 1.41022 2.14167C1.60898 2.26569 1.84269 2.33193 2.0818 2.332C2.40228 2.33205 2.70967 2.21337 2.93642 2.00204C3.16316 1.79072 3.2907 1.50405 3.29102 1.20502V1.20502Z" fill="black"/>
<path d="M3.29102 7.79094C3.29121 7.56784 3.22049 7.3497 3.0878 7.1641C2.95511 6.9785 2.76641 6.83379 2.54557 6.74827C2.32473 6.66275 2.08166 6.64026 1.84712 6.68364C1.61258 6.72703 1.39709 6.83434 1.22792 6.99201C1.05875 7.14968 0.943492 7.35061 0.896724 7.56941C0.849957 7.7882 0.873778 8.01502 0.965181 8.22118C1.05658 8.42734 1.21146 8.60358 1.41022 8.72761C1.60898 8.85163 1.84269 8.91787 2.0818 8.91794C2.40228 8.91799 2.70967 8.79931 2.93642 8.58798C3.16316 8.37666 3.2907 8.08997 3.29102 7.79094V7.79094Z" fill="black"/>
<path d="M3.29102 14.3769C3.29121 14.1538 3.22049 13.9356 3.0878 13.75C2.95511 13.5644 2.76641 13.4197 2.54557 13.3342C2.32473 13.2487 2.08167 13.2262 1.84712 13.2696C1.61258 13.313 1.39709 13.4203 1.22792 13.5779C1.05875 13.7356 0.943494 13.9365 0.896726 14.1553C0.849959 14.3741 0.87378 14.601 0.965183 14.8071C1.05659 15.0133 1.21146 15.1895 1.41022 15.3135C1.60898 15.4376 1.84269 15.5038 2.0818 15.5039C2.40228 15.5039 2.70967 15.3852 2.93642 15.1739C3.16316 14.9626 3.2907 14.6759 3.29102 14.3769Z" fill="black"/>
<path d="M3.29102 20.9628C3.29121 20.7397 3.22049 20.5216 3.0878 20.336C2.95511 20.1504 2.76641 20.0057 2.54557 19.9201C2.32473 19.8346 2.08166 19.8121 1.84712 19.8555C1.61258 19.8989 1.39709 20.0062 1.22792 20.1639C1.05875 20.3216 0.943489 20.5225 0.896722 20.7413C0.849954 20.9601 0.873776 21.1869 0.965179 21.3931C1.05658 21.5992 1.21146 21.7755 1.41022 21.8995C1.60898 22.0235 1.84269 22.0897 2.0818 22.0898C2.24053 22.09 2.39774 22.061 2.54444 22.0044C2.69114 21.9478 2.82445 21.8649 2.93676 21.7602C3.04906 21.6555 3.13816 21.5312 3.19894 21.3944C3.25973 21.2576 3.29102 21.1109 3.29102 20.9628V20.9628Z" fill="black"/>
<path d="M3.29102 27.5488C3.29121 27.3257 3.22049 27.1075 3.0878 26.9219C2.95511 26.7363 2.76641 26.5916 2.54557 26.5061C2.32473 26.4206 2.08166 26.3981 1.84712 26.4415C1.61258 26.4848 1.39709 26.5922 1.22792 26.7498C1.05875 26.9075 0.943491 27.1084 0.896723 27.3272C0.849956 27.546 0.873777 27.7728 0.96518 27.979C1.05658 28.1852 1.21146 28.3614 1.41022 28.4854C1.60898 28.6094 1.84269 28.6757 2.0818 28.6758C2.40226 28.6758 2.70962 28.5571 2.93635 28.3457C3.16309 28.1344 3.29065 27.8478 3.29102 27.5488Z" fill="black"/>
<path d="M3.29102 34.1341C3.29094 33.9111 3.22 33.6931 3.08717 33.5077C2.95434 33.3223 2.76558 33.1778 2.54474 33.0924C2.32391 33.0071 2.08092 32.9848 1.84649 33.0282C1.61205 33.0717 1.3967 33.1791 1.22764 33.3368C1.05858 33.4944 0.943413 33.6953 0.896691 33.914C0.849968 34.1328 0.873789 34.3595 0.965142 34.5656C1.05649 34.7717 1.21128 34.9479 1.40993 35.0719C1.60858 35.1959 1.84218 35.2622 2.08121 35.2624C2.24006 35.2625 2.39737 35.2334 2.54416 35.1768C2.69095 35.1201 2.82434 35.037 2.93669 34.9322C3.04905 34.8274 3.13817 34.703 3.19897 34.5661C3.25976 34.4291 3.29104 34.2824 3.29102 34.1341Z" fill="black"/>
<path d="M3.29102 40.7199C3.29121 40.4968 3.22049 40.2787 3.0878 40.0931C2.95511 39.9075 2.76641 39.7627 2.54557 39.6772C2.32473 39.5917 2.08166 39.5692 1.84712 39.6126C1.61258 39.656 1.39709 39.7633 1.22792 39.921C1.05875 40.0786 0.94349 40.2796 0.896722 40.4984C0.849955 40.7172 0.873777 40.944 0.965179 41.1501C1.05658 41.3563 1.21146 41.5325 1.41022 41.6566C1.60898 41.7806 1.84269 41.8468 2.0818 41.8469C2.40228 41.8469 2.70967 41.7283 2.93642 41.5169C3.16316 41.3056 3.2907 41.0189 3.29102 40.7199V40.7199Z" fill="black"/>
<path d="M59.7554 1.20561C59.7554 0.982708 59.6845 0.764816 59.5518 0.579483C59.4191 0.39415 59.2305 0.249698 59.0098 0.164398C58.789 0.0790991 58.5462 0.0567843 58.3119 0.10027C58.0776 0.143755 57.8624 0.251089 57.6935 0.408702C57.5245 0.566315 57.4095 0.767124 57.3629 0.985739C57.3163 1.20435 57.3402 1.43095 57.4316 1.63688C57.5231 1.84281 57.6779 2.01883 57.8765 2.14266C58.0751 2.2665 58.3086 2.33259 58.5475 2.33259C58.8678 2.33235 59.1749 2.21354 59.4013 2.00224C59.6278 1.79094 59.7551 1.50443 59.7554 1.20561Z" fill="black"/>
<path d="M52.6978 1.20512C52.6978 0.98222 52.6269 0.764328 52.4942 0.578995C52.3615 0.393662 52.1728 0.249209 51.9521 0.16391C51.7314 0.0786108 51.4886 0.056296 51.2543 0.0997812C51.02 0.143266 50.8048 0.250601 50.6359 0.408214C50.4669 0.565826 50.3519 0.766635 50.3053 0.98525C50.2587 1.20387 50.2826 1.43046 50.374 1.6364C50.4655 1.84233 50.6203 2.01834 50.8189 2.14218C51.0175 2.26601 51.251 2.3321 51.4899 2.3321C51.8102 2.33186 52.1172 2.21305 52.3437 2.00175C52.5702 1.79045 52.6975 1.50394 52.6978 1.20512Z" fill="black"/>
<path d="M52.6978 7.79105C52.6978 7.56815 52.6269 7.35026 52.4942 7.16493C52.3615 6.9796 52.1728 6.83516 51.9521 6.74986C51.7314 6.66456 51.4886 6.64223 51.2543 6.68572C51.02 6.7292 50.8048 6.83654 50.6359 6.99415C50.4669 7.15176 50.3519 7.35258 50.3053 7.5712C50.2587 7.78981 50.2826 8.01641 50.374 8.22234C50.4655 8.42827 50.6203 8.60427 50.8189 8.72811C51.0175 8.85194 51.251 8.91805 51.4899 8.91805C51.8102 8.9178 52.1172 8.79898 52.3437 8.58768C52.5702 8.37639 52.6975 8.08987 52.6978 7.79105Z" fill="black"/>
<path d="M45.6396 1.20487C45.6396 0.981976 45.5688 0.764084 45.4361 0.578751C45.3034 0.393418 45.1147 0.248965 44.894 0.163666C44.6733 0.0783667 44.4305 0.0560518 44.1962 0.0995371C43.9619 0.143022 43.7467 0.250357 43.5778 0.40797C43.4088 0.565582 43.2938 0.766391 43.2472 0.985006C43.2006 1.20362 43.2245 1.43022 43.3159 1.63615C43.4073 1.84208 43.5622 2.0181 43.7608 2.14193C43.9594 2.26577 44.1929 2.33186 44.4318 2.33186C44.7521 2.33162 45.0591 2.21281 45.2856 2.00151C45.512 1.79021 45.6394 1.5037 45.6396 1.20487Z" fill="black"/>
<path d="M45.6396 7.79081C45.6396 7.56791 45.5688 7.35002 45.4361 7.16469C45.3034 6.97935 45.1147 6.83491 44.894 6.74961C44.6733 6.66431 44.4305 6.64199 44.1962 6.68547C43.9619 6.72896 43.7467 6.83629 43.5777 6.9939C43.4088 7.15152 43.2938 7.35234 43.2472 7.57095C43.2006 7.78957 43.2245 8.01617 43.3159 8.2221C43.4073 8.42803 43.5622 8.60403 43.7608 8.72787C43.9594 8.8517 44.1929 8.91781 44.4318 8.91781C44.7521 8.91756 45.0591 8.79874 45.2856 8.58744C45.512 8.37614 45.6394 8.08963 45.6396 7.79081Z" fill="black"/>
<path d="M45.6396 14.377C45.6396 14.1541 45.5688 13.9362 45.4361 13.7509C45.3034 13.5655 45.1147 13.4211 44.894 13.3358C44.6733 13.2505 44.4305 13.2282 44.1962 13.2717C43.9619 13.3151 43.7467 13.4225 43.5778 13.5801C43.4088 13.7377 43.2938 13.9385 43.2472 14.1571C43.2006 14.3757 43.2245 14.6023 43.3159 14.8083C43.4073 15.0142 43.5622 15.1902 43.7608 15.314C43.9594 15.4379 44.1929 15.504 44.4318 15.504C44.7521 15.5037 45.0591 15.3849 45.2856 15.1736C45.512 14.9623 45.6394 14.6758 45.6396 14.377Z" fill="black"/>
<path d="M38.5815 1.20487C38.5815 0.981976 38.5107 0.764084 38.378 0.578751C38.2453 0.393418 38.0566 0.248965 37.8359 0.163666C37.6152 0.0783667 37.3724 0.0560518 37.1381 0.0995371C36.9038 0.143022 36.6886 0.250357 36.5196 0.40797C36.3507 0.565582 36.2357 0.766391 36.1891 0.985006C36.1425 1.20362 36.1664 1.43022 36.2578 1.63615C36.3492 1.84208 36.504 2.0181 36.7027 2.14193C36.9013 2.26577 37.1348 2.33186 37.3737 2.33186C37.694 2.33186 38.0013 2.21313 38.2278 2.00178C38.4543 1.79043 38.5815 1.50377 38.5815 1.20487Z" fill="black"/>
<path d="M38.5811 7.79081C38.5811 7.56791 38.5102 7.35002 38.3775 7.16469C38.2448 6.97935 38.0561 6.83491 37.8354 6.74961C37.6147 6.66431 37.3719 6.64199 37.1376 6.68547C36.9033 6.72896 36.6881 6.83629 36.5192 6.9939C36.3502 7.15152 36.2352 7.35234 36.1886 7.57095C36.142 7.78957 36.1659 8.01617 36.2573 8.2221C36.3487 8.42803 36.5036 8.60403 36.7022 8.72787C36.9008 8.8517 37.1343 8.91781 37.3732 8.91781C37.6936 8.91781 38.0008 8.79906 38.2273 8.58771C38.4538 8.37636 38.5811 8.08971 38.5811 7.79081Z" fill="black"/>
<path d="M38.5815 14.377C38.5815 14.1541 38.5107 13.9362 38.378 13.7509C38.2453 13.5655 38.0566 13.4211 37.8359 13.3358C37.6152 13.2505 37.3724 13.2282 37.1381 13.2717C36.9038 13.3151 36.6886 13.4225 36.5196 13.5801C36.3507 13.7377 36.2357 13.9385 36.1891 14.1571C36.1425 14.3757 36.1664 14.6023 36.2578 14.8083C36.3492 15.0142 36.504 15.1902 36.7027 15.3141C36.9013 15.4379 37.1348 15.504 37.3737 15.504C37.694 15.504 38.0013 15.3852 38.2278 15.1739C38.4543 14.9625 38.5815 14.6759 38.5815 14.377Z" fill="black"/>
<path d="M38.5811 20.9629C38.5811 20.74 38.5102 20.5221 38.3775 20.3368C38.2448 20.1515 38.0561 20.007 37.8354 19.9217C37.6147 19.8364 37.3719 19.8141 37.1376 19.8576C36.9033 19.9011 36.6881 20.0084 36.5192 20.166C36.3502 20.3236 36.2352 20.5244 36.1886 20.7431C36.142 20.9617 36.1659 21.1883 36.2573 21.3942C36.3487 21.6001 36.5036 21.7762 36.7022 21.9C36.9008 22.0238 37.1343 22.0899 37.3732 22.0899C37.6936 22.0899 38.0008 21.9712 38.2273 21.7598C38.4538 21.5485 38.5811 21.2618 38.5811 20.9629V20.9629Z" fill="black"/>
<path d="M10.3245 47.5329C10.3405 47.4582 10.3486 47.3821 10.3486 47.3059C10.3486 47.0068 10.2213 46.72 9.99466 46.5085C9.76802 46.297 9.46063 46.1782 9.14011 46.1782C8.81959 46.1782 8.51219 46.297 8.28555 46.5085C8.05891 46.72 7.93159 47.0068 7.93159 47.3059C7.93149 47.3821 7.93978 47.4582 7.95634 47.5329C8.01257 47.7872 8.16106 48.0155 8.37676 48.1795C8.59246 48.3435 8.86218 48.433 9.1404 48.433C9.41863 48.433 9.68835 48.3435 9.90405 48.1795C10.1198 48.0155 10.2682 47.7872 10.3245 47.5329V47.5329Z" fill="black"/>
<path d="M3.26626 47.5328C3.28282 47.4581 3.29111 47.382 3.29101 47.3057C3.29101 47.0066 3.16365 46.7197 2.93693 46.5081C2.71022 46.2966 2.40272 46.1777 2.08209 46.1777C1.76147 46.1777 1.45398 46.2966 1.22726 46.5081C1.00054 46.7197 0.873174 47.0066 0.873174 47.3057C0.873063 47.382 0.881357 47.4581 0.897924 47.5328C0.954155 47.7871 1.10265 48.0154 1.31835 48.1794C1.53406 48.3434 1.80377 48.4329 2.082 48.4329C2.36023 48.4329 2.62994 48.3434 2.84564 48.1794C3.06135 48.0154 3.20984 47.7871 3.26607 47.5328L3.26626 47.5328Z" fill="black"/>
<path d="M3.29102 53.8918C3.29121 53.6687 3.22049 53.4505 3.0878 53.2649C2.95511 53.0793 2.76641 52.9346 2.54557 52.8491C2.32473 52.7636 2.08166 52.7411 1.84712 52.7845C1.61258 52.8279 1.39709 52.9352 1.22792 53.0928C1.05875 53.2505 0.943489 53.4515 0.896722 53.6702C0.849954 53.889 0.873776 54.1159 0.965179 54.322C1.05658 54.5282 1.21146 54.7044 1.41022 54.8284C1.60898 54.9525 1.84269 55.0187 2.0818 55.0188C2.24053 55.0189 2.39774 54.9899 2.54444 54.9334C2.69114 54.8768 2.82445 54.7938 2.93676 54.6891C3.04906 54.5845 3.13816 54.4602 3.19894 54.3234C3.25973 54.1865 3.29102 54.0399 3.29102 53.8918V53.8918Z" fill="black"/>
</svg>
